<?xml version="1.0" encoding="UTF-8"?><svg id="Warstwa_1" xmlns="http://www.w3.org/2000/svg" viewBox="0 0 128.09 41.73"><defs><style>.cls-1{fill:#fff;}.cls-2{fill:#333;}</style></defs><rect class="cls-2" width="128.09" height="41.73"/><path class="cls-1" d="M28.12,21.99c0-1.72-.32-2.04-2.05-2.04H9.11V11.51H28.12c4.67,0,8.5,3.8,8.5,8.45v2.04h-8.5Z"/><path class="cls-1" d="M98.62,18.68h3.76c0,.4,.11,.71,.39,.97,.34,.36,.9,.54,1.63,.54,.67,0,1.24-.1,1.57-.27,.39-.21,.62-.48,.62-.8,0-.48-.5-.88-1.46-1.14-.62-.13-1.07-.23-1.29-.27-1.12-.21-1.96-.4-2.41-.53-.84-.21-1.46-.53-1.85-.93-.5-.44-.79-1.01-.79-1.72,0-1.14,.56-2.02,1.68-2.59,1.01-.53,2.41-.8,4.15-.8s3.16,.31,4.11,.84c.9,.53,1.35,1.28,1.35,2.25,0,.13-.06,.21-.06,.3h-3.72c0-.38-.17-.74-.45-.97-.34-.21-.79-.34-1.4-.34-.51,0-.9,.09-1.24,.3-.34,.18-.5,.44-.5,.71,0,.53,.78,.93,2.3,1.18,1.51,.27,2.36,.44,2.58,.53,.97,.23,1.7,.54,2.09,.88,.56,.48,.84,1.11,.84,1.95,0,1.14-.62,2.02-1.8,2.63-1.01,.57-2.43,.78-4.17,.78-3.98,0-5.95-1.14-5.95-3.52"/><polygon class="cls-1" points="86.6 11.38 96.94 11.38 96.94 13.44 90.36 13.44 90.36 15.6 96.38 15.6 96.38 17.67 90.36 17.67 90.36 19.96 96.94 19.96 96.94 21.98 86.6 21.98 86.6 11.38"/><path class="cls-1" d="M73.06,11.38h5.95c1.18,0,2.13,.13,2.86,.3,1.42,.4,2.2,1.11,2.37,2.12v.36c0,.57-.22,1.1-.67,1.49-.51,.4-1.23,.7-2.26,.88,.97,.13,1.7,.4,2.26,.74,.67,.44,1.01,1.07,1.01,1.85,0,.97-.45,1.72-1.35,2.16-.9,.48-2.26,.7-4,.7h-6.17V11.38Zm3.82,4.23h1.96c.51,0,.9-.1,1.18-.27,.28-.17,.45-.48,.45-.84s-.17-.61-.45-.78c-.28-.18-.73-.27-1.23-.27h-1.91v2.16Zm0,4.36h2.02c.62,0,1.07-.13,1.35-.36,.28-.17,.39-.44,.39-.7,0-.31-.17-.63-.39-.84-.28-.27-.67-.4-1.01-.4h-2.41l.06,2.29Z"/><path class="cls-1" d="M57.56,11.38h3.76l-.17,6.42c0,.75,.28,1.32,.73,1.77,.45,.4,1.18,.63,2.13,.63,1.01,0,1.74-.23,2.19-.71,.39-.4,.56-.97,.56-1.72v-6.38h3.77v6.61c0,1.28-.5,2.29-1.53,3.03-1.07,.8-2.75,1.18-4.99,1.18-1.96,0-3.59-.34-4.71-1.04-1.12-.75-1.74-1.77-1.74-3.05v-6.73Z"/><polygon class="cls-1" points="43.86 11.38 55.98 11.38 55.98 13.44 51.77 13.44 51.77 21.98 48.01 21.98 48.01 13.44 43.86 13.44 43.86 11.38"/><rect class="cls-1" x="43.93" y="24.15" width="1.98" height="8.37"/><path class="cls-1" d="M47.16,26.7h1.93v.64c.21-.25,.42-.46,.67-.6,.25-.17,.54-.25,.89-.25,.47,0,.9,.17,1.25,.51,.39,.38,.61,.92,.61,1.63v3.89h-1.89v-3.34c0-.35-.04-.62-.12-.81-.07-.14-.2-.31-.34-.38-.09-.05-.18-.07-.3-.07-.21,0-.38,.08-.52,.25-.15,.17-.25,.46-.25,.79v3.55h-1.88v-5.22c0-.25-.04-.42-.04-.6"/><path class="cls-1" d="M81.71,25.83l1.84-.84,.04,1.71h1.07l-.04,1.39h-1.03v2.34c0,.38,.03,.63,.07,.75,.03,.08,.17,.17,.39,.17l.56-.04v1.29c-.39,.04-.74,.09-1.03,.09h-.39c-1.4,0-1.49-1.07-1.49-1.92v-2.68h-1v-1.39h1v-.88Z"/><path class="cls-1" d="M54.29,25.83l1.84-.84,.04,1.71h1.07l-.04,1.39h-1.03v2.34c0,.38,.03,.63,.07,.75,.03,.08,.17,.17,.4,.17l.56-.04v1.29c-.39,.04-.75,.09-1.03,.09h-.39c-1.4,0-1.49-1.07-1.49-1.92v-2.68h-1v-1.39h1v-.88Z"/><path class="cls-1" d="M61.41,30.65h1.75c-.07,.59-.32,1.09-.79,1.51-.45,.38-1.03,.54-1.77,.54-.97,0-1.65-.21-2.07-.71-.46-.5-.67-1.3-.67-2.38,0-.96,.25-1.71,.75-2.26,.46-.56,1.14-.85,1.96-.85,.97,0,1.67,.39,2.11,1.06,.35,.54,.53,1.42,.53,2.51h-3.57c0,.38,.04,.63,.11,.84,.14,.38,.39,.59,.79,.59,.21,0,.42-.04,.56-.17,.18-.13,.29-.38,.32-.67m0-1.76c-.01-.27-.06-.48-.12-.65-.09-.24-.19-.39-.42-.51-.12-.06-.25-.09-.39-.09-.54,0-.82,.42-.82,1.25h1.74Z"/><path class="cls-1" d="M64.15,26.7h1.88l.04,1.1c.1-.38,.28-.75,.53-.98,.25-.21,.63-.33,1.14-.33v1.94h-.35c-.25,0-.46,.04-.64,.11-.29,.12-.43,.3-.54,.59-.09,.25-.15,.55-.15,.92v2.47h-1.89v-5.1c-.02-.22-.04-.46-.04-.72"/><path class="cls-1" d="M68.54,26.7h1.91v.64c.23-.25,.44-.46,.68-.6,.25-.17,.53-.25,.9-.25,.46,0,.89,.17,1.24,.51,.39,.38,.6,.92,.6,1.63v3.89h-1.89v-3.34c0-.32-.03-.57-.1-.76-.05-.15-.17-.31-.31-.4-.1-.07-.21-.1-.34-.1-.21,0-.39,.08-.53,.25-.14,.17-.25,.46-.25,.79v3.55h-1.88v-5.22c0-.25-.03-.42-.03-.6"/><path class="cls-1" d="M78.22,29.73c-.42,0-.77,.04-.96,.13-.35,.12-.56,.38-.61,.75,0,.25,.05,.4,.18,.56,.11,.13,.28,.25,.49,.23,.33-.03,.58-.25,.72-.59,.1-.25,.17-.63,.17-1.09m-1.49,2.97c-.37,0-.7-.05-.96-.16-.36-.14-.63-.45-.79-.8-.2-.44-.22-.97-.13-1.44,.1-.5,.4-.85,.86-1.11,.48-.27,1.14-.42,2.03-.42h.46l.03-.25c0-.19-.03-.36-.07-.5-.05-.19-.12-.34-.32-.42-.07-.03-.16-.04-.24-.04-.25,0-.43,.08-.53,.29-.07,.17-.11,.38-.11,.63h-1.77c0-.67,.24-1.17,.7-1.5,.44-.31,1.04-.47,1.79-.47,.39,0,.73,.06,1.04,.17,.31,.12,.66,.34,.88,.59,.24,.27,.36,.61,.36,1.05v2.88c0,.13,.01,.36,.04,.67,.03,.29,.07,.54,.07,.67h-1.83s0-.17,0-.33v-.46c-.12,.2-.26,.38-.4,.53-.22,.23-.4,.33-.72,.39-.12,.02-.25,.04-.37,.04"/><path class="cls-1" d="M105.08,29.73c-.42,0-.77,.04-.96,.13-.35,.12-.56,.38-.61,.75,0,.25,.05,.4,.18,.56,.11,.13,.28,.25,.5,.23,.32-.03,.58-.25,.72-.59,.1-.25,.17-.63,.17-1.09m-1.49,2.97c-.37,0-.7-.05-.96-.16-.36-.14-.63-.45-.79-.8-.2-.44-.22-.97-.13-1.44,.1-.5,.4-.85,.86-1.11,.48-.27,1.14-.42,2.03-.42h.46l.03-.25c0-.19-.03-.36-.07-.5-.05-.19-.12-.34-.32-.42-.07-.03-.15-.04-.24-.04-.25,0-.44,.08-.53,.29-.07,.17-.11,.38-.11,.63h-1.77c0-.67,.24-1.17,.7-1.5,.44-.31,1.04-.47,1.79-.47,.39,0,.73,.06,1.03,.17,.31,.12,.66,.34,.88,.59,.24,.27,.36,.61,.36,1.05v2.88c0,.13,.02,.36,.04,.67,.03,.29,.07,.54,.07,.67h-1.83v-.79c-.12,.2-.26,.38-.4,.53-.22,.23-.4,.33-.72,.39-.12,.02-.25,.04-.37,.04"/><rect class="cls-1" x="85.6" y="24.15" width="1.91" height="1.63"/><rect class="cls-1" x="85.6" y="26.75" width="1.91" height="5.78"/><path class="cls-1" d="M88.63,29.56c0-.88,.25-1.63,.75-2.17,.51-.6,1.21-.89,2.07-.89s1.6,.29,2.14,.85c.53,.54,.79,1.3,.79,2.26,0,1.09-.32,1.92-.97,2.47-.49,.46-1.14,.63-1.95,.63-.89,0-1.6-.25-2.1-.8-.46-.59-.72-1.34-.72-2.34m3.84,.04c0-.34-.03-.64-.08-.87-.06-.24-.18-.53-.36-.7-.15-.15-.34-.22-.58-.22-.16,0-.31,.05-.43,.16-.18,.15-.32,.45-.38,.66-.08,.27-.11,.6-.11,.98,0,1.21,.32,1.84,.93,1.84,.39,0,.65-.21,.82-.58,.14-.34,.21-.75,.21-1.25"/><path class="cls-1" d="M95.39,26.7h1.93v.64c.21-.25,.42-.46,.68-.6,.25-.17,.53-.25,.89-.25,.46,0,.9,.17,1.25,.51,.39,.38,.61,.92,.61,1.63v3.89h-1.89v-3.34c0-.26-.02-.48-.07-.65-.05-.19-.16-.38-.32-.5-.11-.07-.22-.11-.35-.11-.23,0-.4,.08-.54,.25-.14,.17-.25,.46-.25,.79v3.55h-1.88v-5.22c0-.25-.04-.42-.04-.6"/><rect class="cls-1" x="108.11" y="24.15" width="1.93" height="8.37"/><path class="cls-1" d="M23.4,22.04c0,1.72,.32,2.04,2.05,2.04h16.98v8.45H23.4c-4.67,0-8.5-3.8-8.5-8.45v-2.04h8.5Z"/><path class="cls-1" d="M116.06,11.71l.18,.02c.27,0,.46-.06,.58-.16,.12-.1,.18-.25,.18-.41s-.06-.31-.16-.41c-.1-.1-.25-.16-.44-.16-.09,0-.19,.01-.32,.06v1.07Zm-.8-1.31h1.3c.31,0,.55,.07,.71,.21,.16,.13,.24,.29,.24,.5,0,.18-.06,.32-.16,.46-.1,.12-.28,.19-.53,.21l.71,.96c.1,.12,.18,.22,.23,.26l.18,.06v.1h-.63l-.99-1.31h-.25v.73c0,.21,.03,.32,.07,.37,.04,.06,.13,.09,.28,.1v.1h-1.15v-.1c.13-.01,.24-.04,.27-.1,.04-.06,.07-.18,.07-.37v-1.6c0-.18-.03-.29-.07-.35-.04-.06-.15-.09-.27-.1v-.12Zm3.4,1.54c0-.59-.22-1.1-.65-1.53-.44-.43-.96-.65-1.58-.65s-1.14,.22-1.57,.63c-.43,.44-.65,.95-.65,1.54s.22,1.13,.65,1.54c.43,.43,.96,.65,1.57,.65s1.14-.22,1.57-.65c.44-.41,.67-.94,.67-1.54m.34,0c0,.71-.25,1.31-.75,1.79-.5,.49-1.11,.72-1.82,.72s-1.31-.24-1.82-.72c-.49-.49-.75-1.09-.75-1.79s.27-1.28,.75-1.78c.5-.5,1.11-.74,1.82-.74s1.32,.24,1.82,.74c.5,.5,.75,1.09,.75,1.78"/></svg>