<?xml version="1.0" encoding="UTF-8"?>
<!-- Generator: Adobe Illustrator 16.0.3, SVG Export Plug-In . SVG Version: 6.00 Build 0) -->
<svg xmlns="http://www.w3.org/2000/svg" xmlns:xlink="http://www.w3.org/1999/xlink" id="logo" x="0px" y="0px" width="211px" height="68px" viewBox="0 0 211 68" xml:space="preserve"> <g> <path fill-rule="evenodd" clip-rule="evenodd" fill="#131718" d="M45.577,34.094c0-2.873-0.524-3.398-3.399-3.398H13.993V16.589 h31.584c7.76,0,14.125,6.349,14.125,14.106v3.398H45.577z"></path> <path fill-rule="evenodd" clip-rule="evenodd" fill="#131718" d="M162.708,28.564h6.248c0,0.664,0.186,1.187,0.65,1.616 c0.56,0.591,1.494,0.899,2.702,0.899c1.12,0,2.055-0.163,2.615-0.45c0.647-0.358,1.024-0.809,1.024-1.329 c0-0.809-0.841-1.476-2.427-1.901c-1.025-0.216-1.769-0.383-2.142-0.45c-1.866-0.358-3.264-0.669-4.011-0.884 c-1.396-0.354-2.424-0.878-3.073-1.543c-0.839-0.734-1.306-1.687-1.306-2.874c0-1.899,0.932-3.374,2.797-4.324 c1.676-0.878,4.008-1.329,6.897-1.329c2.981,0,5.245,0.521,6.826,1.401c1.494,0.878,2.239,2.141,2.239,3.755 c0,0.21-0.095,0.355-0.095,0.497h-6.174c0-0.644-0.282-1.236-0.746-1.615c-0.558-0.357-1.307-0.571-2.33-0.571 c-0.841,0-1.492,0.145-2.052,0.501c-0.559,0.308-0.84,0.735-0.84,1.188c0,0.877,1.306,1.544,3.821,1.97 c2.52,0.454,3.918,0.736,4.29,0.88c1.607,0.381,2.82,0.902,3.471,1.473c0.933,0.807,1.4,1.854,1.4,3.255 c0,1.901-1.024,3.372-2.985,4.398c-1.676,0.948-4.029,1.304-6.922,1.304C165.973,34.431,162.708,32.531,162.708,28.564z"></path> <polygon fill-rule="evenodd" clip-rule="evenodd" fill="#131718" points="142.738,16.374 159.914,16.374 159.914,19.82 148.983,19.82 148.983,23.432 158.98,23.432 158.98,26.875 148.983,26.875 148.983,30.703 159.914,30.703 159.914,34.075 142.738,34.075 "></polygon> <path fill-rule="evenodd" clip-rule="evenodd" fill="#131718" d="M120.25,16.374h9.878c1.961,0,3.543,0.213,4.756,0.498 c2.355,0.667,3.658,1.854,3.938,3.544v0.591c0,0.95-0.373,1.832-1.117,2.493c-0.841,0.668-2.052,1.165-3.753,1.476 c1.608,0.214,2.822,0.666,3.753,1.234c1.117,0.734,1.677,1.783,1.677,3.087c0,1.62-0.745,2.878-2.236,3.616 c-1.492,0.809-3.753,1.162-6.643,1.162H120.25V16.374L120.25,16.374z M126.587,23.432h3.264c0.841,0,1.489-0.168,1.958-0.453 c0.464-0.286,0.747-0.808,0.747-1.4c0-0.571-0.283-1.023-0.747-1.309c-0.469-0.306-1.21-0.449-2.051-0.449h-3.171V23.432 L126.587,23.432z M126.587,30.703h3.355c1.024,0,1.773-0.218,2.237-0.595c0.466-0.287,0.654-0.737,0.654-1.163 c0-0.525-0.278-1.046-0.654-1.402c-0.464-0.452-1.117-0.668-1.677-0.668h-4.01L126.587,30.703z"></path> <path fill-rule="evenodd" clip-rule="evenodd" fill="#131718" d="M94.5,16.374h6.247l-0.281,10.717c0,1.26,0.467,2.206,1.213,2.947 c0.745,0.665,1.958,1.044,3.539,1.044c1.681,0,2.893-0.379,3.637-1.188c0.654-0.665,0.931-1.615,0.931-2.875V16.374h6.27v11.024 c0,2.141-0.836,3.824-2.537,5.063c-1.772,1.329-4.568,1.972-8.3,1.972c-3.261,0-5.964-0.572-7.826-1.734 c-1.868-1.26-2.892-2.945-2.892-5.085V16.374z"></path> <polygon fill-rule="evenodd" clip-rule="evenodd" fill="#131718" points="71.732,16.374 91.868,16.374 91.868,19.82 84.875,19.82 84.875,34.075 78.63,34.075 78.63,19.82 71.732,19.82 "></polygon> <rect x="71.839" y="37.699" fill-rule="evenodd" clip-rule="evenodd" fill="#ED2127" width="3.299" height="13.97"></rect> <path fill-rule="evenodd" clip-rule="evenodd" fill="#ED2127" d="M77.216,41.95h3.2v1.068c0.354-0.416,0.703-0.767,1.123-0.996 c0.418-0.28,0.889-0.418,1.471-0.418c0.773,0,1.497,0.277,2.081,0.859c0.652,0.63,1.005,1.536,1.005,2.719v6.486h-3.132v-5.58 c0-0.572-0.066-1.031-0.207-1.344c-0.107-0.238-0.334-0.507-0.563-0.631C82.052,44.036,81.89,44,81.704,44 c-0.351,0-0.634,0.139-0.864,0.417c-0.259,0.279-0.423,0.766-0.423,1.325v5.927h-3.13v-7.252V42.95 C77.287,42.53,77.216,42.252,77.216,41.95z"></path> <path fill-rule="evenodd" clip-rule="evenodd" fill="#ED2127" d="M134.615,40.487l3.063-1.396l0.068,2.86h1.776l-0.067,2.326 h-1.709v3.905c0,0.628,0.048,1.046,0.117,1.257c0.046,0.138,0.281,0.279,0.655,0.279l0.937-0.069v2.16 c-0.652,0.07-1.241,0.14-1.709,0.14h-0.655c-2.32,0-2.477-1.775-2.477-3.207v-4.465h-1.658v-2.326h1.658V40.487z"></path> <path fill-rule="evenodd" clip-rule="evenodd" fill="#ED2127" d="M89.063,40.487l3.063-1.396l0.072,2.86h1.771l-0.068,2.326h-1.703 v3.905c0,0.628,0.047,1.046,0.115,1.257c0.049,0.138,0.277,0.279,0.656,0.279l0.932-0.069v2.16c-0.653,0.07-1.236,0.14-1.703,0.14 h-0.656c-2.325,0-2.479-1.775-2.479-3.207v-4.465h-1.659v-2.326h1.659V40.487z"></path> <path fill-rule="evenodd" clip-rule="evenodd" fill="#ED2127" d="M100.889,48.532h2.898c-0.116,0.977-0.54,1.813-1.31,2.512 c-0.748,0.625-1.708,0.907-2.946,0.907c-1.609,0-2.734-0.351-3.436-1.188c-0.768-0.835-1.12-2.159-1.12-3.978 c0-1.603,0.421-2.858,1.241-3.763c0.769-0.934,1.888-1.42,3.247-1.42c1.613,0,2.783,0.649,3.503,1.765 c0.586,0.907,0.889,2.373,0.889,4.188h-5.934c0,0.629,0.068,1.049,0.183,1.393c0.236,0.629,0.657,0.98,1.311,0.98 c0.351,0,0.701-0.071,0.935-0.282C100.653,49.438,100.841,49.021,100.889,48.532L100.889,48.532z M100.889,45.602 c-0.027-0.44-0.1-0.796-0.204-1.075c-0.144-0.399-0.312-0.66-0.7-0.861c-0.192-0.1-0.409-0.153-0.64-0.153 c-0.887,0-1.354,0.694-1.354,2.09H100.889z"></path> <path fill-rule="evenodd" clip-rule="evenodd" fill="#ED2127" d="M105.446,41.95h3.13l0.069,1.84 c0.163-0.629,0.467-1.26,0.892-1.628c0.419-0.35,1.05-0.558,1.892-0.558v3.232h-0.586c-0.413,0-0.765,0.065-1.055,0.19 c-0.479,0.201-0.716,0.504-0.9,0.982c-0.154,0.411-0.242,0.925-0.242,1.548v4.111h-3.128v-7.462v-1.046 C105.479,42.787,105.446,42.396,105.446,41.95z"></path> <path fill-rule="evenodd" clip-rule="evenodd" fill="#ED2127" d="M112.738,41.95h3.178v1.068c0.376-0.416,0.724-0.767,1.119-0.996 c0.424-0.28,0.89-0.418,1.496-0.418c0.772,0,1.471,0.277,2.059,0.859c0.654,0.63,1.003,1.536,1.003,2.719v6.486h-3.132v-5.58 c0-0.525-0.052-0.956-0.165-1.262c-0.091-0.257-0.281-0.513-0.506-0.665c-0.169-0.111-0.357-0.162-0.566-0.162 c-0.35,0-0.652,0.139-0.889,0.417c-0.234,0.279-0.419,0.766-0.419,1.325v5.927h-3.131v-7.252V42.95 C112.785,42.53,112.738,42.252,112.738,41.95z"></path> <path fill-rule="evenodd" clip-rule="evenodd" fill="#ED2127" d="M128.814,46.996c-0.7,0-1.287,0.073-1.589,0.211 c-0.585,0.207-0.938,0.627-1.005,1.253c0.001,0.42,0.079,0.663,0.3,0.942c0.177,0.219,0.473,0.414,0.825,0.384 c0.537-0.042,0.956-0.417,1.189-0.977C128.698,48.394,128.814,47.768,128.814,46.996L128.814,46.996z M126.338,51.95 c-0.615,0-1.157-0.081-1.601-0.264c-0.596-0.237-1.057-0.751-1.316-1.329c-0.33-0.74-0.361-1.623-0.21-2.412 c0.162-0.84,0.658-1.427,1.419-1.854c0.797-0.448,1.891-0.7,3.368-0.7h0.77l0.046-0.416c0-0.312-0.048-0.599-0.114-0.835 c-0.088-0.321-0.194-0.576-0.535-0.702c-0.123-0.044-0.259-0.069-0.401-0.069c-0.418,0-0.725,0.143-0.888,0.491 c-0.116,0.279-0.188,0.627-0.188,1.043h-2.943c0-1.114,0.397-1.952,1.169-2.507c0.724-0.512,1.727-0.791,2.966-0.791 c0.65,0,1.219,0.092,1.721,0.283c0.511,0.196,1.094,0.566,1.463,0.983c0.407,0.445,0.602,1.022,0.602,1.756v4.812 c0,0.209,0.023,0.605,0.072,1.116c0.044,0.489,0.116,0.908,0.116,1.114h-3.043c0-0.068,0.004-0.278,0.004-0.557v-0.767 c-0.208,0.33-0.432,0.638-0.668,0.89c-0.361,0.387-0.667,0.554-1.19,0.654C126.754,51.927,126.542,51.95,126.338,51.95z"></path> <path fill-rule="evenodd" clip-rule="evenodd" fill="#ED2127" d="M173.446,46.996c-0.7,0-1.287,0.073-1.59,0.211 c-0.585,0.207-0.933,0.627-1.005,1.253c0.002,0.42,0.079,0.663,0.3,0.942c0.175,0.219,0.472,0.414,0.823,0.384 c0.538-0.042,0.955-0.417,1.188-0.977C173.33,48.394,173.446,47.768,173.446,46.996L173.446,46.996z M170.967,51.95 c-0.614,0-1.152-0.081-1.599-0.264c-0.596-0.237-1.057-0.751-1.316-1.329c-0.332-0.74-0.365-1.623-0.213-2.412 c0.161-0.84,0.661-1.427,1.421-1.854c0.797-0.448,1.896-0.7,3.366-0.7h0.772l0.047-0.416c0-0.312-0.052-0.599-0.112-0.835 c-0.093-0.321-0.198-0.576-0.54-0.702c-0.121-0.044-0.259-0.069-0.401-0.069c-0.418,0-0.725,0.143-0.889,0.491 c-0.116,0.279-0.188,0.627-0.188,1.043h-2.942c0-1.114,0.4-1.952,1.17-2.507c0.725-0.512,1.729-0.791,2.968-0.791 c0.648,0,1.218,0.092,1.722,0.283c0.509,0.196,1.09,0.566,1.463,0.983c0.405,0.445,0.601,1.022,0.601,1.756v4.812 c0,0.209,0.023,0.605,0.07,1.116c0.046,0.489,0.115,0.908,0.115,1.114h-3.037c0-0.068,0.002-0.278,0.002-0.557v-0.767 c-0.209,0.33-0.433,0.638-0.669,0.89c-0.36,0.387-0.665,0.554-1.19,0.654C171.383,51.927,171.171,51.95,170.967,51.95z"></path> <rect x="141.084" y="37.699" fill-rule="evenodd" clip-rule="evenodd" fill="#ED2127" width="3.179" height="2.72"></rect> <rect x="141.084" y="42.021" fill-rule="evenodd" clip-rule="evenodd" fill="#ED2127" width="3.179" height="9.646"></rect> <path fill-rule="evenodd" clip-rule="evenodd" fill="#ED2127" d="M146.109,46.719c0-1.464,0.418-2.722,1.236-3.625 c0.842-1.003,2.012-1.488,3.435-1.488c1.476,0,2.664,0.485,3.552,1.418c0.891,0.902,1.313,2.159,1.313,3.768 c0,1.812-0.538,3.206-1.612,4.111c-0.82,0.77-1.896,1.046-3.252,1.046c-1.471,0-2.66-0.415-3.481-1.324 C146.527,49.649,146.109,48.39,146.109,46.719L146.109,46.719z M152.488,46.791c0-0.575-0.049-1.065-0.142-1.458 c-0.091-0.395-0.304-0.88-0.596-1.17c-0.249-0.241-0.569-0.375-0.971-0.375c-0.261,0-0.512,0.088-0.716,0.267 c-0.291,0.246-0.527,0.743-0.637,1.108c-0.132,0.444-0.189,1-0.189,1.628c0,2.021,0.542,3.066,1.542,3.066 c0.658,0,1.078-0.35,1.355-0.977C152.371,48.324,152.488,47.627,152.488,46.791z"></path> <path fill-rule="evenodd" clip-rule="evenodd" fill="#ED2127" d="M157.347,41.95h3.203v1.068c0.352-0.416,0.702-0.767,1.123-0.996 c0.422-0.28,0.887-0.418,1.469-0.418c0.772,0,1.495,0.277,2.085,0.859c0.652,0.63,1.004,1.536,1.004,2.719v6.486h-3.133v-5.58 c0-0.432-0.038-0.795-0.11-1.083c-0.081-0.316-0.269-0.633-0.538-0.825c-0.176-0.126-0.372-0.181-0.593-0.181 c-0.371,0-0.651,0.139-0.885,0.417c-0.233,0.279-0.422,0.766-0.422,1.325v5.927h-3.131v-7.252V42.95 C157.419,42.53,157.347,42.252,157.347,41.95z"></path> <rect x="178.474" y="37.697" fill-rule="evenodd" clip-rule="evenodd" fill="#ED2127" width="3.2" height="13.971"></rect> <path fill-rule="evenodd" clip-rule="evenodd" fill="#ED2127" d="M37.742,34.171c0,2.873,0.529,3.397,3.398,3.397h28.207v14.104 H37.742c-7.755,0-14.12-6.349-14.12-14.104v-3.397H37.742z"></path> <path fill-rule="evenodd" clip-rule="evenodd" fill="#131718" d="M191.677,16.924c0.12,0.026,0.222,0.026,0.297,0.026 c0.439,0,0.757-0.098,0.956-0.271c0.194-0.171,0.292-0.416,0.292-0.686c0-0.271-0.098-0.518-0.269-0.688 c-0.171-0.169-0.417-0.268-0.736-0.268c-0.146,0-0.318,0.022-0.54,0.099V16.924L191.677,16.924z M190.352,14.74h2.16 c0.514,0,0.907,0.123,1.18,0.344c0.268,0.221,0.393,0.493,0.393,0.837c0,0.294-0.102,0.539-0.272,0.758 c-0.17,0.197-0.465,0.319-0.882,0.344l1.178,1.596c0.169,0.195,0.294,0.369,0.393,0.441c0.073,0.052,0.171,0.073,0.291,0.098v0.174 h-1.051l-1.645-2.183h-0.419v1.225c0,0.342,0.048,0.541,0.12,0.614c0.077,0.099,0.225,0.146,0.473,0.17v0.174h-1.918v-0.174 c0.222-0.024,0.395-0.071,0.442-0.17c0.072-0.099,0.122-0.295,0.122-0.614v-2.677c0-0.291-0.05-0.49-0.122-0.586 c-0.074-0.095-0.247-0.148-0.442-0.172V14.74L190.352,14.74z M195.998,17.316c0,1.008-0.368,1.892-1.106,2.58 c-0.711,0.711-1.567,1.075-2.601,1.075c-1.006,0-1.888-0.364-2.598-1.075c-0.715-0.688-1.082-1.572-1.082-2.58 c0-0.979,0.367-1.841,1.082-2.576c0.71-0.685,1.592-1.052,2.598-1.052c1.033,0,1.89,0.367,2.626,1.077 C195.629,15.476,195.998,16.338,195.998,17.316L195.998,17.316z M196.56,17.316c0,1.181-0.415,2.186-1.251,2.997 c-0.835,0.811-1.843,1.203-3.019,1.203c-1.178,0-2.184-0.393-3.015-1.203c-0.813-0.812-1.254-1.816-1.254-2.997 c0-1.152,0.44-2.135,1.254-2.968c0.831-0.833,1.837-1.228,3.015-1.228c1.176,0,2.184,0.395,3.019,1.228 C196.145,15.182,196.56,16.164,196.56,17.316z"></path> </g> </svg>
